<svg width="26" height="26" viewBox="0 0 26 26" fill="none" xmlns="http://www.w3.org/2000/svg">
<path d="M24.75 13C24.8881 13 25.0003 13.1119 24.9974 13.25C24.9531 15.3762 24.3444 17.4541 23.2317 19.2699C22.0754 21.1569 20.4198 22.6873 18.4479 23.692C16.476 24.6967 14.2647 25.1366 12.0585 24.963C9.85225 24.7893 7.73699 24.009 5.94658 22.7082C4.15617 21.4074 2.76036 19.6368 1.91345 17.5922C1.06655 15.5476 0.801545 13.3086 1.14774 11.1227C1.49394 8.93692 2.43786 6.88941 3.87513 5.20658C5.25824 3.58717 7.04638 2.36618 9.05484 1.66701C9.18523 1.62162 9.32639 1.69373 9.36905 1.82504L12.4948 11.4452C12.7961 12.3723 13.66 13 14.6347 13H24.75Z" fill="white" stroke="white" stroke-width="1.5"/>
<path d="M14.1445 1.59672C14.1018 1.46541 14.1736 1.32394 14.3062 1.28577C15.3363 0.98949 16.4199 0.922338 17.4805 1.09033C18.6235 1.27136 19.7075 1.72035 20.6437 2.40058C21.58 3.08081 22.342 3.97297 22.8674 5.00411C23.3549 5.96092 23.6259 7.0122 23.6624 8.08341C23.6671 8.2214 23.5547 8.33337 23.4167 8.33337L17.2415 8.33337C16.7 8.33337 16.22 7.98467 16.0527 7.46965L14.1445 1.59672Z" fill="white" stroke="white" stroke-width="1.5"/>
</svg>
