<svg width="26" height="26" viewBox="0 0 26 26" fill="none" xmlns="http://www.w3.org/2000/svg">
<path d="M9.66667 25H3.66667V20.6476C3.66667 18.3978 3.66667 17.2729 4.23962 16.4843C4.42465 16.2296 4.64863 16.0056 4.90331 15.8206C5.69191 15.2476 6.81683 15.2476 9.06667 15.2476H9.66667V15.1333C9.66667 12.641 9.66667 11.3949 10.2026 10.4667C10.5536 9.85859 11.0586 9.35364 11.6667 9.00257C12.5949 8.46667 13.841 8.46667 16.3333 8.46667V4C16.3333 2.34315 17.6765 1 19.3333 1C20.9902 1 22.3333 2.34315 22.3333 4V25H16.3333H9.66667Z" fill="white"/>
<path d="M25 25H22.3333M1 25H3.66667M16.3333 25H9.66667M16.3333 25V8.46667M16.3333 25H22.3333M9.66667 25H3.66667M9.66667 25V15.2476M3.66667 25V20.6476C3.66667 18.3978 3.66667 17.2729 4.23962 16.4843C4.42465 16.2296 4.64863 16.0056 4.90331 15.8206C5.69191 15.2476 6.81683 15.2476 9.06667 15.2476H9.66667M9.66667 15.2476V15.1333C9.66667 12.641 9.66667 11.3949 10.2026 10.4667C10.5536 9.85859 11.0586 9.35364 11.6667 9.00257C12.5949 8.46667 13.841 8.46667 16.3333 8.46667V8.46667M16.3333 8.46667V4C16.3333 2.34315 17.6765 1 19.3333 1V1C20.9902 1 22.3333 2.34315 22.3333 4V25" stroke="white" stroke-width="1.5" stroke-linecap="round"/>
</svg>
